<svg width="40" height="40" viewBox="0 0 40 40" fill="none" xmlns="http://www.w3.org/2000/svg">
<rect width="40" height="40" fill="#1EB7EE"/>
<g clip-path="url(#clip0_1_41)">
<path d="M32.4063 10.5939C32.0109 10.198 31.5418 10.0001 31.0002 10.0001H29.0004V8.50002C29.0004 7.81265 28.7554 7.22407 28.2659 6.73449C27.776 6.2449 27.1878 6 26.5001 6H25.5004C24.8127 6 24.2242 6.2449 23.7347 6.73454C23.2449 7.22407 23.0001 7.81271 23.0001 8.50008V10.0001H17.0004V8.50008C17.0004 7.81271 16.7555 7.22413 16.2659 6.73454C15.7764 6.2449 15.1878 6 14.5002 6H13.5003C12.8128 6 12.2242 6.2449 11.7346 6.73454C11.2451 7.22407 11.0001 7.81271 11.0001 8.50008V10.0001H9.00028C8.45848 10.0001 7.9898 10.1981 7.59397 10.5939C7.19813 10.9897 7.00018 11.4586 7.00018 12.0002V32.0002C7.00018 32.5415 7.19813 33.0103 7.59397 33.4063C7.98975 33.8021 8.45843 34.0001 9.00028 34.0001H30.9998C31.5414 34.0001 32.0106 33.8021 32.4059 33.4063C32.8018 33.0104 32.9998 32.5414 32.9998 32.0002V12.0002C32.9998 11.4584 32.802 10.9897 32.4063 10.5939ZM25.0004 8.50024C25.0004 8.35428 25.0468 8.23438 25.1405 8.14085C25.2341 8.04721 25.354 8.00031 25.5 8.00031H26.4998C26.6459 8.00031 26.7654 8.04705 26.8593 8.14085C26.953 8.23454 26.9998 8.35445 26.9998 8.50024V13.0001C26.9998 13.146 26.953 13.2657 26.8593 13.3595C26.7653 13.453 26.6459 13.5 26.4998 13.5H25.5C25.354 13.5 25.2341 13.4532 25.1405 13.3595C25.0468 13.2656 25.0004 13.146 25.0004 13.0001V8.50024ZM13.0004 8.50024C13.0004 8.35428 13.0471 8.23438 13.1409 8.14085C13.2347 8.04721 13.3544 8.00031 13.5003 8.00031H14.5002C14.6461 8.00031 14.7661 8.04705 14.8596 8.14085C14.9532 8.23454 15.0002 8.35445 15.0002 8.50024V13.0001C15.0002 13.146 14.9534 13.2658 14.8596 13.3595C14.7658 13.453 14.6461 13.5 14.5002 13.5H13.5003C13.3544 13.5 13.2345 13.4532 13.1409 13.3595C13.0474 13.2656 13.0004 13.146 13.0004 13.0001V8.50024ZM30.9998 32H9.00028V16.0001H30.9998V32Z" fill="white"/>
</g>
<defs>
<clipPath id="clip0_1_41">
<rect width="28" height="28" fill="white" transform="translate(6 6)"/>
</clipPath>
</defs>
</svg>
