<svg width="31" height="31" viewBox="0 0 31 31" fill="none" xmlns="http://www.w3.org/2000/svg">
<g clip-path="url(#clip0_1_355)">
<path fill-rule="evenodd" clip-rule="evenodd" d="M15.5 3.26706C17.5015 3.19202 19.5058 3.24781 21.5 3.43406C22.4673 3.42199 23.4283 3.59159 24.333 3.93406C25.5812 4.51572 26.5843 5.51886 27.166 6.76706C27.5088 7.67172 27.6787 8.6327 27.667 9.60006C27.667 11.1001 27.834 11.6001 27.834 15.6001C27.909 17.6016 27.8532 19.6058 27.667 21.6001C27.6791 22.5674 27.5095 23.5283 27.167 24.4331C26.5853 25.6813 25.5822 26.6844 24.334 27.2661C23.4293 27.6085 22.4683 27.7781 21.501 27.7661C20.001 27.7661 19.501 27.9331 15.501 27.9331C13.4995 28.0081 11.4952 27.9523 9.50099 27.7661C8.53369 27.7781 7.57272 27.6085 6.66799 27.2661C5.4198 26.6844 4.41665 25.6813 3.83499 24.4331C3.49184 23.5285 3.32156 22.5675 3.33299 21.6001C3.33299 20.1001 3.16599 19.6001 3.16599 15.6001C3.09096 13.5986 3.14674 11.5943 3.33299 9.60006C3.32092 8.63276 3.49053 7.67179 3.83299 6.76706C4.124 6.14886 4.51871 5.58505 4.99999 5.10006C5.39091 4.51701 5.98537 4.10086 6.66699 3.93306C7.57172 3.59059 8.53269 3.42099 9.49999 3.43306C11.4942 3.24681 13.4985 3.19102 15.5 3.26606M15.5 0.600061C13.4429 0.526783 11.3832 0.582559 9.33299 0.767061C8.08065 0.764103 6.83828 0.989803 5.66699 1.43306C4.65537 1.76296 3.73977 2.33525 2.99999 3.10006C2.23518 3.83984 1.66289 4.75544 1.33299 5.76706C0.809999 6.91479 0.58111 8.17472 0.666994 9.43306C0.482492 11.4832 0.426716 13.5429 0.499994 15.6001C0.426716 17.6572 0.482492 19.7169 0.666994 21.7671C0.664234 23.0198 0.890275 24.2625 1.33399 25.4341C1.66375 26.4452 2.23568 27.3605 2.99999 28.1001C3.73977 28.8649 4.65537 29.4372 5.66699 29.7671C6.83853 30.2108 8.08125 30.4368 9.33399 30.4341C11.3838 30.6182 13.4432 30.6736 15.5 30.6001C17.5571 30.6733 19.6168 30.6176 21.667 30.4331C22.9197 30.4358 24.1625 30.2098 25.334 29.7661C26.3378 29.4201 27.2496 28.8502 28.0004 28.0994C28.7511 27.3487 29.3211 26.4368 29.667 25.4331C30.1107 24.2615 30.3368 23.0188 30.334 21.7661C30.333 20.1001 30.5 19.6001 30.5 15.6001C30.5733 13.5429 30.5175 11.4832 30.333 9.43306C30.3358 8.18032 30.1097 6.9376 29.666 5.76606C29.3362 4.7549 28.7643 3.83967 28 3.10006C27.2602 2.33525 26.3446 1.76296 25.333 1.43306C24.1617 0.989803 22.9193 0.764103 21.667 0.767061C19.6168 0.582559 17.5571 0.526783 15.5 0.600061ZM15.5 7.93306C14.4885 7.91629 13.484 8.10315 12.5462 8.48252C11.6085 8.86188 10.7566 9.426 10.0413 10.1413C9.32594 10.8566 8.76181 11.7085 8.38245 12.6463C8.00308 13.5841 7.81623 14.5886 7.83299 15.6001C7.83299 17.1165 8.28266 18.5988 9.12512 19.8596C9.96758 21.1205 11.165 22.1031 12.566 22.6834C13.9669 23.2637 15.5085 23.4156 16.9958 23.1197C18.483 22.8239 19.8491 22.0937 20.9214 21.0215C21.9936 19.9492 22.7238 18.5831 23.0197 17.0958C23.3155 15.6086 23.1637 14.067 22.5834 12.666C22.0031 11.2651 21.0204 10.0676 19.7596 9.22518C18.4987 8.38272 17.0164 7.93306 15.5 7.93306ZM15.5 20.6001C14.8401 20.6121 14.1845 20.4911 13.5724 20.2441C12.9603 19.9971 12.4043 19.6292 11.9376 19.1625C11.4709 18.6958 11.103 18.1398 10.856 17.5277C10.609 16.9156 10.4879 16.26 10.5 15.6001C10.4879 14.9401 10.609 14.2845 10.856 13.6725C11.103 13.0604 11.4709 12.5044 11.9376 12.0376C12.4043 11.5709 12.9603 11.2031 13.5724 10.9561C14.1845 10.7091 14.8401 10.588 15.5 10.6001C16.1599 10.588 16.8155 10.7091 17.4276 10.9561C18.0397 11.2031 18.5957 11.5709 19.0624 12.0376C19.5291 12.5044 19.897 13.0604 20.144 13.6725C20.391 14.2845 20.5121 14.9401 20.5 15.6001C20.5121 16.26 20.391 16.9156 20.144 17.5277C19.897 18.1398 19.5291 18.6958 19.0624 19.1625C18.5957 19.6292 18.0397 19.9971 17.4276 20.2441C16.8155 20.4911 16.1599 20.6121 15.5 20.6001ZM23.5 5.76706C23.1375 5.76706 22.7831 5.87457 22.4816 6.07598C22.1802 6.27739 21.9453 6.56367 21.8065 6.8986C21.6678 7.23354 21.6315 7.6021 21.7022 7.95766C21.7729 8.31323 21.9475 8.63984 22.2039 8.89619C22.4602 9.15254 22.7868 9.32711 23.1424 9.39784C23.498 9.46857 23.8665 9.43227 24.2015 9.29353C24.5364 9.1548 24.8227 8.91986 25.0241 8.61842C25.2255 8.31699 25.333 7.96259 25.333 7.60006C25.3286 7.11529 25.134 6.65163 24.7912 6.30884C24.4484 5.96604 23.9848 5.7715 23.5 5.76706Z" fill="white"/>
</g>
<defs>
<clipPath id="clip0_1_355">
<rect width="30" height="30" fill="white" transform="translate(0.5 0.600098)"/>
</clipPath>
</defs>
</svg>
