<svg width="30" height="31" viewBox="0 0 30 31" fill="none" xmlns="http://www.w3.org/2000/svg">
<g clip-path="url(#clip0_1_362)">
<path d="M29.9925 30.6001V30.5989H30V19.5964C30 14.2139 28.8413 10.0676 22.5488 10.0676C19.5238 10.0676 17.4938 11.7276 16.665 13.3014H16.5775V10.5701H10.6113V30.5989H16.8238V20.6814C16.8238 18.0701 17.3188 15.5451 20.5525 15.5451C23.7388 15.5451 23.7863 18.5251 23.7863 20.8489V30.6001H29.9925Z" fill="white"/>
<path d="M0.494995 10.5713H6.715V30.6H0.494995V10.5713Z" fill="white"/>
<path d="M3.6025 0.600098C1.61375 0.600098 0 2.21385 0 4.2026C0 6.19135 1.61375 7.83885 3.6025 7.83885C5.59125 7.83885 7.205 6.19135 7.205 4.2026C7.20375 2.21385 5.59 0.600098 3.6025 0.600098V0.600098Z" fill="white"/>
</g>
<defs>
<clipPath id="clip0_1_362">
<rect width="30" height="30" fill="white" transform="translate(0 0.600098)"/>
</clipPath>
</defs>
</svg>
