<svg width="31" height="31" viewBox="0 0 31 31" fill="none" xmlns="http://www.w3.org/2000/svg">
<g clip-path="url(#clip0_1_350)">
<path fill-rule="evenodd" clip-rule="evenodd" d="M10.25 28.6831C21.583 28.6831 27.75 19.3501 27.75 11.1831V10.3501C28.9145 9.46337 29.9276 8.39385 30.75 7.18306C29.6325 7.66907 28.4556 8.00531 27.25 8.18306C28.4897 7.40492 29.4297 6.23023 29.917 4.85006C28.7125 5.52065 27.4228 6.02522 26.083 6.35006C25.5191 5.71491 24.8257 5.20781 24.0495 4.86285C23.2734 4.51788 22.4324 4.34304 21.583 4.35006C19.955 4.37457 18.4007 5.03218 17.2494 6.18344C16.0981 7.33471 15.4405 8.88911 15.416 10.5171C15.3782 10.9682 15.4351 11.4222 15.583 11.8501C13.1306 11.7316 10.7318 11.0903 8.54732 9.96931C6.36288 8.84828 4.44323 7.27336 2.917 5.35006C2.36865 6.31532 2.08154 7.40691 2.084 8.51706C2.10616 9.52421 2.35781 10.513 2.8198 11.4083C3.28179 12.3035 3.94194 13.0815 4.75 13.6831C3.74829 13.6629 2.77018 13.3753 1.917 12.8501C1.91524 14.2775 2.4149 15.6603 3.32876 16.7569C4.24261 17.8535 5.5126 18.5944 6.917 18.8501C6.37421 18.9966 5.81106 19.053 5.25 19.0171C4.8536 19.0437 4.45601 18.9869 4.083 18.8501C4.49062 20.0851 5.26969 21.1642 6.31374 21.9397C7.35778 22.7153 8.61585 23.1495 9.916 23.1831C7.72538 24.8944 5.02977 25.8322 2.25 25.8501C1.74422 25.8771 1.23744 25.8207 0.75 25.6831C3.50803 27.6859 6.84195 28.7387 10.25 28.6831Z" fill="white"/>
</g>
<defs>
<clipPath id="clip0_1_350">
<rect width="30" height="30" fill="white" transform="translate(0.75 0.600098)"/>
</clipPath>
</defs>
</svg>
