<svg width="31" height="22" viewBox="0 0 31 22" fill="none" xmlns="http://www.w3.org/2000/svg">
<g clip-path="url(#clip0_1_359)">
<path d="M15.2496 21.4142C15.1563 21.4142 5.85843 21.407 3.51365 20.7705C2.8809 20.5985 2.30409 20.2641 1.84042 19.8004C1.37676 19.3367 1.04235 18.7599 0.870348 18.1272C0.260416 15.8315 0.253174 10.9625 0.253174 10.9134C0.253174 10.8643 0.260416 6.01946 0.870348 3.69802C1.04641 3.06442 1.38188 2.48651 1.84476 2.0194C2.30764 1.55229 2.88249 1.21158 3.51446 1.02977C5.83429 0.41984 15.1563 0.412598 15.2496 0.412598C15.3429 0.412598 24.6641 0.41984 26.9856 1.05633C27.6183 1.22833 28.1951 1.56274 28.6588 2.0264C29.1225 2.49007 29.4569 3.06687 29.6289 3.69963C30.2629 6.01946 30.2469 10.8901 30.246 10.9416C30.2452 10.9931 30.2388 15.8355 29.6289 18.1553C29.457 18.7882 29.1227 19.3651 28.659 19.8287C28.1953 20.2924 27.6184 20.6268 26.9856 20.7986C24.6641 21.4054 15.3438 21.4142 15.2496 21.4142ZM11.9738 6.08706V15.743L20.3536 10.915L11.9738 6.08706Z" fill="white"/>
</g>
<defs>
<clipPath id="clip0_1_359">
<rect width="29.9937" height="21" fill="white" transform="translate(0.253174 0.412598)"/>
</clipPath>
</defs>
</svg>
